<?xml version="1.0" encoding="utf-8"?>
<!-- Generator: Adobe Illustrator 16.0.0, SVG Export Plug-In . SVG Version: 6.00 Build 0)  -->
<!DOCTYPE svg PUBLIC "-//W3C//DTD SVG 1.1//EN" "http://www.w3.org/Graphics/SVG/1.1/DTD/svg11.dtd">
<svg version="1.1" id="Layer_1" xmlns="http://www.w3.org/2000/svg" xmlns:xlink="http://www.w3.org/1999/xlink" x="0px" y="0px"
	 width="1920px" height="500px" viewBox="0 0 1920 500" enable-background="new 0 0 1920 500" xml:space="preserve">
<path fill="none" stroke="#000000" stroke-miterlimit="10" d="M2059,236.5"/>
<path stroke="#000000" stroke-width="2" stroke-miterlimit="10" d="M2004,162c0,46.94-38.06,85-85,85
	c-31.64,0-59.25-17.3-73.87-42.95c-9.3,46.78-50.58,82.04-100.09,82.04c-35.89,0-67.45-18.53-85.63-46.55
	c-16.73,33.53-51.36,56.55-91.37,56.55c-18.14,0-35.17-4.729-49.93-13.04C1505.98,337.94,1457.03,379,1398.5,379
	c-67.66,0-122.5-54.85-122.5-122.5c0-1.68,0.03-3.36,0.1-5.02c-12.01,6.699-25.859,10.52-40.6,10.52c-20.45,0-39.19-7.35-53.7-19.57
	c-12.64,54.2-61.26,94.57-119.3,94.57c-41.92,0-78.92-21.05-101-53.16c-22.09,32.11-59.09,53.16-101,53.16
	c-32.72,0-62.45-12.83-84.42-33.74C755.61,342.34,714.67,369,667.5,369C599.84,369,545,314.15,545,246.5c0-1.68,0.03-3.36,0.1-5.02
	c-12.01,6.7-25.86,10.52-40.6,10.52c-26.57,0-50.23-12.4-65.52-31.74C425.58,248.49,396.82,268,363.5,268
	c-22.08,0-42.16-8.56-57.08-22.57C292.72,302.54,241.31,345,180,345c-66.94,0-122.05-50.59-129.21-115.61
	C36.45,240.43,18.49,247-1,247c-46.94,0-85-38.06-85-85s38.06-93,85-93l0,0h1920l0,0C1965.94,69,2004,115.06,2004,162z"/>
</svg>
