<?xml version="1.0" encoding="utf-8"?>
<!-- Generator: Adobe Illustrator 16.0.0, SVG Export Plug-In . SVG Version: 6.00 Build 0)  -->
<!DOCTYPE svg PUBLIC "-//W3C//DTD SVG 1.1//EN" "http://www.w3.org/Graphics/SVG/1.1/DTD/svg11.dtd">
<svg version="1.1" id="Layer_1" xmlns="http://www.w3.org/2000/svg" xmlns:xlink="http://www.w3.org/1999/xlink" x="0px" y="0px"
	 width="1920px" height="500px" viewBox="0 0 1920 500" enable-background="new 0 0 1920 500" xml:space="preserve">
<path fill="none" stroke="#000000" stroke-miterlimit="10" d="M2059,236.5"/>
<path fill="#FFFFFF" d="M2005,93c0,46.94-38.06,85-85,85c-31.64,0-59.25-17.3-73.87-42.95c-9.3,46.78-50.58,82.04-100.09,82.04
	c-35.89,0-67.45-18.53-85.63-46.55c-16.73,33.53-51.36,56.55-91.37,56.55c-18.14,0-35.17-4.729-49.93-13.04
	C1506.98,268.94,1458.03,310,1399.5,310c-67.66,0-122.5-54.85-122.5-122.5c0-1.68,0.03-3.36,0.1-5.02
	c-12.01,6.699-25.859,10.52-40.6,10.52c-20.45,0-39.19-7.35-53.7-19.57c-12.64,54.2-61.26,94.57-119.3,94.57
	c-41.92,0-78.92-21.05-101-53.16c-22.09,32.11-59.09,53.16-101,53.16c-32.72,0-62.45-12.83-84.42-33.74
	C756.61,273.34,715.67,300,668.5,300C600.84,300,546,245.15,546,177.5c0-1.68,0.03-3.36,0.1-5.02c-12.01,6.7-25.86,10.52-40.6,10.52
	c-26.57,0-50.23-12.4-65.52-31.74C426.58,179.49,397.82,199,364.5,199c-22.08,0-42.16-8.56-57.08-22.57
	C293.72,233.54,242.31,276,181,276c-66.94,0-122.05-50.59-129.21-115.61C37.45,171.43,19.49,178,0,178c-46.94,0-85-38.06-85-85
	S-46.94,0,0,0l0,0h1920l0,0C1966.94,0,2005,46.06,2005,93z"/>
</svg>
